<?xml version="1.0" encoding="UTF-8"?><svg id="playagain" xmlns="http://www.w3.org/2000/svg" width="818" height="152" viewBox="0 0 818 152"><defs><style>.cls-1{fill:#fff;}</style></defs><rect x="83.22" y="48.04" width="655" height="61.14" rx="21.55" ry="21.55"/><path class="cls-1" d="m264.54,58.82c3.04,0,5.7.36,7.97,1.08,2.27.72,4.15,1.7,5.64,2.93,1.49,1.23,2.61,2.62,3.36,4.18.75,1.56,1.13,3.17,1.13,4.84,0,1.78-.38,3.47-1.15,5.07-.77,1.6-1.91,3.02-3.43,4.26-1.52,1.24-3.41,2.23-5.67,2.95-2.26.72-4.88,1.08-7.85,1.08h-10.55s-.06.04-.07.04c-.02,0-.02.01-.02.04v5.34h-20.41v-31.81h31.06Zm-6.04,17.18c.98,0,1.81-.15,2.48-.45.67-.3,1.17-.68,1.5-1.15.33-.47.49-.94.49-1.42,0-.51-.16-.98-.49-1.42-.33-.44-.82-.8-1.47-1.08-.66-.28-1.49-.42-2.5-.42h-4.51s-.06,0-.07.02c-.02.01-.02.04-.02.06v5.81s.07.01.1.04h4.51Z"/><path class="cls-1" d="m284.02,90.63v-31.81h16.98v31.81h-16.98Z"/><path class="cls-1" d="m313.14,63.76c2.8-.47,5.6-.7,8.42-.7s5.4.23,7.95.68c2.55.45,4.83,1.15,6.85,2.08,2.01.93,3.61,2.09,4.78,3.48,1.18,1.39,1.77,3.01,1.77,4.88v16.46h-17.17v-8.91c0-.51-.2-.92-.59-1.23s-.87-.53-1.42-.66c-.56-.13-1.11-.19-1.67-.19-1.24,0-2.18.21-2.82.64-.64.42-.96.91-.96,1.44s.33,1.03.98,1.46c.65.44,1.59.66,2.8.66.59,0,1.26-.1,2.01-.3.75-.2,1.33-.71,1.72-1.53-.69,1.39-1.38,2.77-2.09,4.16-.7,1.39-1.4,2.77-2.08,4.16-1.18.51-2.41.87-3.71,1.08-1.29.21-2.58.32-3.85.32-1.54,0-3.02-.18-4.44-.53s-2.7-.87-3.83-1.55c-1.13-.68-2.02-1.53-2.67-2.54-.66-1.02-.98-2.21-.98-3.56,0-.82.16-1.63.49-2.42.33-.79.82-1.54,1.47-2.25.65-.71,1.48-1.33,2.48-1.87,1-.54,2.18-.95,3.56-1.25,1.37-.3,2.94-.45,4.71-.45,1.14,0,2.26.08,3.34.23,1.08.16,2.1.39,3.07.7.96.31,1.83.69,2.6,1.15s1.4.96,1.89,1.53v-.38c0-.88-.25-1.63-.76-2.27-.51-.64-1.19-1.16-2.06-1.57s-1.86-.71-2.99-.91c-1.13-.2-2.31-.3-3.56-.3-1.93,0-3.88.21-5.84.64-1.96.42-3.68,1.05-5.15,1.87v-10.14c2.39-.93,4.98-1.63,7.78-2.1Z"/><path class="cls-1" d="m355.62,95.72c.59-.57,1.16-1.13,1.72-1.7.56-.57,1.12-1.13,1.69-1.7.57-.57,1.14-1.13,1.69-1.7h-9.18c-1.08-2.94-2.16-5.87-3.24-8.78-1.08-2.91-2.16-5.83-3.24-8.76-1.08-2.93-2.16-5.85-3.24-8.76h18.01c.59,3.03,1.17,6.05,1.74,9.08.57,3.03,1.15,6.05,1.74,9.08l.05.25c.03-.08.05-.16.05-.21.42-2.04.83-4.07,1.23-6.09.39-2.02.79-4.04,1.2-6.07.41-2.02.81-4.04,1.2-6.04h17.08c-1.31,3.51-2.62,7-3.95,10.48s-2.64,6.96-3.95,10.44c-1.31,3.48-2.63,6.97-3.97,10.48h-16.64Z"/><path class="cls-1" d="m434.77,58.82c.59,1.75,1.17,3.51,1.74,5.28.57,1.77,1.14,3.54,1.72,5.3.57,1.77,1.15,3.54,1.74,5.3s1.17,3.54,1.74,5.3c.57,1.77,1.15,3.54,1.72,5.3s1.15,3.54,1.74,5.32h-21.89l-.83-4.16h-6.67l-.83,4.16h-20.95c.59-1.78,1.17-3.56,1.74-5.32s1.14-3.54,1.72-5.3c.57-1.77,1.14-3.53,1.72-5.3.57-1.77,1.14-3.54,1.72-5.3.57-1.77,1.14-3.54,1.72-5.3.57-1.77,1.14-3.53,1.69-5.28h30.47Zm-18.4,24.69h5.45s.05-.01.05-.04c-.26-1.38-.5-2.61-.71-3.67s-.43-2.19-.66-3.39c-.23-1.2-.44-2.34-.64-3.42-.2-1.07-.44-2.29-.74-3.65h-.05c-.26,1.36-.5,2.57-.71,3.65-.21,1.08-.43,2.21-.66,3.42-.23,1.2-.44,2.33-.64,3.39s-.42,2.28-.69,3.67v.04Z"/><path class="cls-1" d="m486.14,74.64v10.35c0,1.53-.41,2.91-1.23,4.14-.82,1.23-1.95,2.32-3.39,3.27-1.44.95-3.11,1.73-5.01,2.35s-3.94,1.1-6.13,1.42c-2.19.33-4.42.49-6.67.49-2.88,0-5.72-.27-8.54-.81-2.81-.54-5.33-1.34-7.56-2.42v-6.75c.95.54,2.1,1.03,3.46,1.46s2.8.79,4.34,1.04c1.54.25,3.06.38,4.56.38,1.24,0,2.41-.11,3.51-.32,1.1-.21,2.07-.54,2.92-1s1.52-1.05,2.01-1.78c.49-.73.74-1.64.74-2.71v-7.85c0-.51-.12-.95-.34-1.31-.23-.37-.56-.67-1.01-.91s-.96-.42-1.55-.55c-.59-.13-1.24-.19-1.96-.19-.98,0-1.86.11-2.62.32s-1.37.53-1.79.95c-.43.42-.64.95-.64,1.57s.22,1.2.66,1.65c.44.45,1.04.8,1.79,1.04.75.24,1.62.36,2.6.36,2.62,0,4.24-.82,4.86-2.46l-2.94,9.97c-1.37.71-2.73,1.13-4.07,1.27s-2.7.21-4.07.21c-2,0-3.91-.28-5.74-.83-1.83-.55-3.46-1.34-4.88-2.38s-2.55-2.29-3.39-3.78c-.83-1.48-1.25-3.17-1.25-5.07,0-1.27.2-2.45.59-3.52.39-1.07.95-2.06,1.67-2.97.72-.9,1.58-1.7,2.58-2.4,1-.69,2.09-1.28,3.29-1.76s2.47-.84,3.83-1.08c1.36-.24,2.74-.36,4.15-.36.65,0,1.36.04,2.11.11.75.07,1.51.18,2.28.34s1.51.37,2.23.64c.72.27,1.38.59,1.99.98.6.38,1.12.84,1.54,1.38.03.06.06.08.07.08.02,0,.02-.01.02-.04v-2.84h16.98v10.31Z"/><path class="cls-1" d="m498.24,63.76c2.8-.47,5.6-.7,8.42-.7s5.4.23,7.95.68c2.55.45,4.83,1.15,6.85,2.08,2.01.93,3.61,2.09,4.78,3.48,1.18,1.39,1.77,3.01,1.77,4.88v16.46h-17.17v-8.91c0-.51-.2-.92-.59-1.23s-.87-.53-1.42-.66c-.56-.13-1.11-.19-1.67-.19-1.24,0-2.18.21-2.82.64-.64.42-.96.91-.96,1.44s.33,1.03.98,1.46c.65.44,1.59.66,2.8.66.59,0,1.26-.1,2.01-.3.75-.2,1.33-.71,1.72-1.53-.69,1.39-1.38,2.77-2.09,4.16-.7,1.39-1.4,2.77-2.08,4.16-1.18.51-2.41.87-3.71,1.08-1.29.21-2.58.32-3.85.32-1.54,0-3.02-.18-4.44-.53s-2.7-.87-3.83-1.55c-1.13-.68-2.02-1.53-2.67-2.54-.66-1.02-.98-2.21-.98-3.56,0-.82.16-1.63.49-2.42.33-.79.82-1.54,1.47-2.25.65-.71,1.48-1.33,2.48-1.87,1-.54,2.18-.95,3.56-1.25,1.37-.3,2.94-.45,4.71-.45,1.14,0,2.26.08,3.34.23,1.08.16,2.1.39,3.07.7.96.31,1.83.69,2.6,1.15s1.4.96,1.89,1.53v-.38c0-.88-.25-1.63-.76-2.27-.51-.64-1.19-1.16-2.06-1.57s-1.86-.71-2.99-.91c-1.13-.2-2.31-.3-3.56-.3-1.93,0-3.88.21-5.84.64-1.96.42-3.68,1.05-5.15,1.87v-10.14c2.39-.93,4.98-1.63,7.78-2.1Z"/><path class="cls-1" d="m529.92,75.83v-11.5h16.98v8.4l-.05.04c-2.81.51-5.64,1.02-8.46,1.53-2.83.51-5.65,1.02-8.46,1.53Zm0,14.8v-14.8h16.98v14.8h-16.98Z"/><path class="cls-1" d="m548.86,90.63v-26.3h16.98v26.3h-16.98Zm22.18,0v-13.4c0-.82-.24-1.4-.71-1.74-.47-.34-1.04-.52-1.69-.55-.66-.03-1.25.04-1.79.21-.54.17-.88.34-1.01.51l3.93-10.9c1.18-.45,2.44-.79,3.78-1.02,1.34-.23,2.67-.34,3.97-.34,1.83,0,3.54.25,5.13.76,1.59.51,2.88,1.31,3.88,2.42,1,1.1,1.5,2.57,1.5,4.41v19.64h-16.98Z"/></svg>