<?xml version="1.0" encoding="UTF-8"?><svg id="alt_indhold" xmlns="http://www.w3.org/2000/svg" width="170.53mm" height="191.32mm" viewBox="0 0 483.4 542.32"><defs><style>.cls-1{stroke-linecap:round;}.cls-1,.cls-2{fill:none;stroke:#000;stroke-miterlimit:10;stroke-width:30px;}.cls-3{fill:#ee4b8d;}.cls-4{fill:#f69524;}.cls-5{fill:#009e4e;}.cls-6{fill:#1c2eb4;}</style></defs><circle class="cls-3" cx="244.52" cy="276.42" r="218.47"/><circle class="cls-5" cx="244.52" cy="276.42" r="198.2"/><circle class="cls-6" cx="244.23" cy="276.12" r="176.45"/><circle cx="242.74" cy="275.8" r="157.67"/><circle class="cls-4" cx="242.48" cy="273.12" r="138.3"/><ellipse cx="282" cy="228.78" rx="40.68" ry="24.41" transform="translate(49.46 507.7) rotate(-89.23)"/><ellipse cx="206.35" cy="227.77" rx="40.68" ry="24.41" transform="translate(-24.16 431.06) rotate(-89.23)"/><path class="cls-1" d="m302.18,290.06c2.23,8.21,8.79,14.23,16.5,15.23,8.1,1.04,14.05-3.89,15.09-4.78"/><path class="cls-1" d="m154.28,304.25c7.38,4.23,16.28,3.85,22.44-.9,6.47-4.99,7.18-12.69,7.29-14.05"/><path class="cls-2" d="m176.4,303.72c1.11,5.57,7.33,32.26,32.2,48.74,13.23,8.76,45.97,11.78,66.45,1.66,27.33-13.51,36.39-44.41,37.36-48.58"/></svg>