<?xml version="1.0" encoding="UTF-8"?><svg id="Layer_1" xmlns="http://www.w3.org/2000/svg" width="1009" height="1072" viewBox="0 0 1009 1072"><defs><style>.cls-1{fill:#f04c23;}.cls-2{fill:#fff;}.cls-3{fill:#009e4e;}.cls-4{fill:#a84e23;}.cls-5{fill:#ae7158;}.cls-6{fill:#442404;}</style></defs><path class="cls-1" d="m542.16,580.78c-4.64,24.99-15.3,48.48-27.67,70.67-16.71,29.98-36.74,58.11-59.6,83.72-11.76,13.17-24.25,25.66-36.4,38.46-23.11,24.34-45.85,51.41-52.55,84.3-9.55,46.84,15.22,93.03,24.13,139.99,11.94-31.92,44.01-46.11,34.94-78.92-4.14-14.99,4.18-27.15,9.09-41.91,23.57-70.9,67.17-135.04,81.1-208.44,2.12-11.19,6.16-21.25,10.81-31.65,6.29-14.08,15.88-28.1,15.09-43.5"/><path class="cls-1" d="m760.03,822.98c-9.19,62.31-25.58,123.56-48.75,182.13-1.16,2.94-2.42,5.99-4.82,8.06-3.86,3.33-9.5,3.22-14.59,2.95-39.04-2.03-78.15-2.76-117.24-2.18-1.99-15.98.08-32.45,5.97-47.44,4.27-10.88,10.48-20.92,14.69-31.83,4.99-12.95,7.03-26.81,9.9-40.4,4.86-23.07,12.18-45.63,21.8-67.16,2.24-5.03,4.78-10.21,9.2-13.49,5.6-4.15,13.08-4.46,20.05-4.5,33.85-.21,67.72,1.81,101.31,6.05,2.29.29,3.24.52,3.46,2.82-2.65,1.02-2.81,4.05-3.43,6.83"/><path d="m34.22,451.65c15.1,2.82,28.11,14.81,32.13,29.64-.16-3.04,1.02-6.13,3.17-8.29,4.22,1.07,6.59,6.59,4.46,10.39,33.92-26.7,82.96-32.62,122.26-14.74,10.23-22.04,20.71-44.35,36.49-62.83,15.78-18.48,37.78-32.97,62.04-34.37-4.07-11.47-3.41-23.99-3.22-36.16.36-24.51-1.22-50.11,8.98-72.4,10.2-22.29,40.42-50.6,62.47-39.89-24.5,28.84-27.6,86.85-3.2,115.77,4.55,5.39,9.88,10.31,12.87,16.7s2.87,14.98-2.56,19.48c-6.82,5.65-18.89,2.69-24.08,9.87-1.66,2.3-2.2,5.21-2.72,8-5.81,30.93-15.8,61.07-29.62,89.34-3.04,6.22-6.56,12.67-12.55,16.14-4.28,2.48-9.35,3.15-14.29,3.52-17.76,1.36-35.76-.37-52.94-5.08-1.32,17.23-12.51,32.17-25.17,43.94-19.36,17.98-44.1,31.28-70.49,32.52s-54.13-11.23-66.93-34.34c-9.23,6.97-19.9,12.01-31.14,14.71-2.27.55-4.9.93-6.75-.5-1.88-1.45-2.15-4.14-2.27-6.52-1.54-32.27-3.08-64.54-4.62-96.81"/><path d="m347,231c-3.52-27.35,11.28-45.67,29.63-66.25s43.51-34.22,69.82-42.48c37.47-11.77,78.52-13.11,116-1.4,37.48,11.72,71.05,36.87,90.73,70.86,11.42-7.8,26.64-8.37,39.9-4.42,13.26,3.96,24.92,11.94,35.91,20.34,13.2,10.09,25.96,21.15,35.1,35.02s14.37,30.95,11.29,47.27c41.07-11.23,88.51,8.05,110.09,44.75,19.32-25.19,52.4-39.08,83.92-35.26-.91,37.63-1.82,75.26-2.73,112.9-30.51,12.53-69.31-.79-85.69-29.42-6.82,14.77-26.24,17.57-42.49,18.35-13.84.67-27.67,1.33-41.51,2-6.57.32-13.44.58-19.39-2.22-4.55-2.14-8.13-5.87-11.59-9.51-16.12-16.98-33.2-36.1-34.29-59.48-19.39,4.33-40.78-1.73-55.03-15.57-1.56,28.13-9.65,55.88-23.43,80.45.26-7.26-3.84-14.51-10.2-18.03,19.83-33.14,19.27-81.12-10.36-105.89-1.87-1.57-4-3.09-6.44-3.19-6.11-.25-8.72,7.57-9.43,13.64-1.43,12.31-2.86,24.62-4.29,36.93-16.07-9.67-29.24-24.1-37.4-40.99-4.67-9.66-8.52-20.99-18.1-25.82-11.24-5.67-25.81.19-36.92-5.73-13.8-7.36-15-28.76-28.87-36-14.99-7.82-31.68,6.06-48.14,9.93-15.97,3.76-33.92-3.21-43.18-16.76-2.14-3.14-4.16-6.83-7.76-8.05-5.94-2.01-11.38,3.84-14.94,8.99-9.8,14.19-11.42,11.84-21.22,26.03l-9-1Z"/><path class="cls-4" d="m500.74,523.5c7.51-.95,14.73-3.57,21.05-7.76,39.83-26.39,72.07-63.33,103.62-99.7,4.66-5.37,9.35-10.78,13.03-16.89,5.33-8.86,8.36-18.92,11.35-28.85,5.64-18.79,11.34-37.98,10.77-57.61-.6-20.52-9.26-41.98-27.12-52-1.55-.87-3.3-1.39-5.07-1.28-5.54.36-11.56,7.07-12.37,11.59-2.42,13.6-.16,25.78-2.58,39.39-13.31-12.53-24.64-27.23-33.42-43.36-6.11-11.24-12.39-24.41-24.55-27.91-14.88-4.28-31.47,5.82-43.45-4.12-8.44-7-9.16-18.37-15.04-27.68-5.16-8.18-16-12.13-25.1-9.15-4.34,1.42-8.11,4.17-12.03,6.55-12.05,7.34-26.58,11.45-40.32,8.47-13.75-2.97-26.19-14.07-28.31-28.19-16.6,17.71-31.84,37.26-40.95,59.9s-11.59,48.77-2.8,71.54c9.11,23.6,29.95,44.02,28.22,69.31-.38,5.56-1.89,11.03-1.85,16.61.08,11.22,6.35,21.37,13.16,30.2,12.84,16.67,28.29,31.11,41.24,47.69,7.41,9.48,22.08,22.41,35.37,32.89,10.51,8.28,23.88,12.04,37.15,10.36h0Z"/><path d="m447.36,257.36c-6.52,4.32-12.18,9.94-16.55,16.44-1.69,2.52-3.25,5.4-2.91,8.42.63,5.62,7.72,8.5,13.17,6.98s9.54-5.88,13.53-9.88c16.19-16.25,36.47-29.91,59.31-32.07.78-2.14-.75-4.56-2.79-5.57s-4.42-.97-6.69-.9c-13.13.4-26.43,1.03-38.96,4.98-12.53,3.94-24.39,11.61-30.74,23.11"/><path d="m354.95,333.39c-3.46-2.25-5.77-6.2-7.33-10.32-1.65-4.35-2.6-9.28-1.36-13.8,1.64-5.98,6.67-9.93,11.66-12.79,8.42-4.82,18.09-7.88,27.38-5.85,3.03.66,6.05,1.91,8.34,4.22,2.29,2.31,3.76,5.82,3.27,9.23-.76,5.2-5.64,8.43-10.3,9.3-4.65.87-9.46.12-14.11,1.04-8.19,1.63-15.29,8.82-17.51,17.77"/><path d="m459.12,329.6c2.57-9.58,10.38-17.16,19.41-21.28s19.17-5.15,29.08-5.01c3.32.05,6.73.21,9.88-.86,4.47-1.52,7.84-5.38,9.82-9.67s2.78-9.01,3.56-13.67c-13.87,9.38-32.62,5.93-48.56,11.05-8.36,2.69-16,7.9-21,15.12-5,7.22-7.19,16.48-5.31,25.05"/><path d="m480.13,306.99c-1.81.87-2.37,3.21-2.2,5.2.43,4.93,4.37,9.36,9.23,10.34s10.21-1.55,12.53-5.92c1.13-2.13,1.57-4.57,1.59-6.98.01-1.47-.14-3-.84-4.29-1.04-1.9-3.17-3.03-5.33-3.32s-4.33.16-6.42.76c-3.4.98-6.69,2.37-9.76,4.14"/><path d="m372.75,365.9c-1.39-4.21-4.26-7.9-8-10.28-1.74-1.1-3.98-2.8-3.11-4.66.22-.48.63-.85,1.03-1.19,6.22-5.3,13.91-8.86,21.98-10.17,4.89-.79,10.02-.75,14.68.95s8.78,5.24,10.45,9.9c1.67,4.67.5,10.42-3.37,13.52-1.64,1.31-3.62,2.1-5.58,2.85-1.82.69-3.77,1.38-5.69,1.02-1.76-.33-3.24-1.5-4.55-2.73-3.17-2.96-6-7.27-4.66-11.39-4.59,3.37-8.87,7.16-12.76,11.32"/><path d="m453.04,401.1c-2.91.21-5.83-.2-8.75-.18s-5.97.52-8.29,2.3-3.62,5.11-2.36,7.74c.13.28.3.56.58.7.52.27,1.13-.05,1.63-.35,4.54-2.84,9.08-5.67,13.63-8.51"/><path d="m473.28,384.36c-5.45,4.35-11.67,8.95-18.61,8.28-3.93-.38-7.68-2.46-11.6-2.01-4.13.48-7.37,3.61-10.54,6.29-5.36,4.53-11.45,8.2-17.97,10.83,5.84,2.19,11.68,4.37,17.52,6.56.47-2.81-2.63-5.05-2.85-7.89-.27-3.63,4.02-5.75,7.6-6.4,4.48-.82,9.08-.98,13.61-.48,3.18.35,6.45,1.03,9.54.19,5.88-1.6,8.93-7.9,11.26-13.53"/><circle class="cls-5" cx="414.5" cy="396.5" r="5.5"/><path d="m504.35,420.22c-9.94-2.88-20.46-3.76-30.75-2.59-4.06.46-8.14,1.27-11.77,3.14-6.37,3.3-11.34,9.85-18.49,10.54-1.46.14-2.95.02-4.36.41-3.28.9-5.23,4.21-6.6,7.32-1.4,3.17-2.58,6.7-1.73,10.05.86,3.36,4.56,6.17,7.78,4.87,3.74-1.52,4.29-7.09,7.91-8.9,2.7-1.35,5.95-.05,8.96-.38,6.32-.7,9.48-7.99,14.83-11.44,5.15-3.33,11.79-2.77,17.79-3.99,6.13-1.25,11.83-4.52,16.01-9.17"/><path d="m496.4,428.89c1.39,7.74-2.56,15.71-8.04,20.45s-12.27,6.92-18.88,9.01c-3.2,1.01-6.41,2.02-9.61,3.03-2.7.85-5.72,1.67-8.2.17-1.61-.97-2.69-2.76-3.86-4.37s-2.62-3.16-4.43-3.36-3.81,1.72-3.3,3.73c.45,1.79,2.38,2.42,3.43,3.84,1.07,1.45,1.1,3.56,1.79,5.29.72,1.8,2.12,3.12,3.53,4.24,12.55,9.95,30.66,9.34,42.69-1.43,12.02-10.77,17.01-30.87,11.74-47.34-2.05,2.2-4.1,4.4-6.15,6.61"/><path class="cls-2" d="m442.75,449.58c1.2,1.07,2.39,2.15,3.59,3.22.41.37.86.76,1.4.86.53.1,1.06-.09,1.56-.27,12.66-4.66,24.93-10.38,36.63-17.1,4.05-2.32,8.27-5.04,10.05-9.35-3.48-.54-7.01.25-10.44,1.04-2.86.66-5.73,1.31-8.59,1.97-2.46.56-5.01,1.17-6.99,2.74-1.53,1.21-2.59,2.9-3.84,4.4-3.92,4.72-9.94,7.63-16.08,7.77-1.51.03-3.06-.09-4.5.36s-2.79,1.67-2.79,3.19"/><path class="cls-2" d="m448.75,456.52c3.28,2.59,8.06.99,11.86-.75,12.44-5.69,24.85-12,34.78-21.4-2.45,8.2-7.6,15.85-15.11,19.93-3.9,2.12-8.25,3.21-12.56,4.27-3.6.9-7.21,1.79-10.81,2.69-2.09.52-4.27,1.04-6.37.55s-4.04-2.33-3.88-4.48"/><path class="cls-6" d="m543.8,569.26c9.42-20.26,17.63-41,26.38-61.55,7.01-16.47,14.96-32.42,25.24-47.11,3.36-4.8,7.07-9.31,10.56-14.01,1.67-2.24,2.72-4.74,3.77-7.31s2.6-4.83,4.82-6.72c1.47-1.25-.66-3.37-2.12-2.12-1.99,1.69-3.61,3.68-4.73,6.05-.98,2.09-1.69,4.29-2.83,6.3-1.38,2.43-3.3,4.53-5,6.73-1.59,2.06-3.16,4.13-4.69,6.24-5.42,7.47-10.38,15.26-14.79,23.37-8.87,16.31-15.58,33.68-22.67,50.8-5.27,12.71-10.72,25.34-16.53,37.82-.81,1.74,1.78,3.26,2.59,1.51h0Z"/><path class="cls-6" d="m524,513c9.34,23.46,18.62,48.75,19,74,5-20,3.47-46.72,12.05-65.34,17.38-37.72,55.78-65.26,63.5-106.07-29.66,32.65-48.45,66.08-84.56,91.41-3,2-7,5-10,6"/><path class="cls-4" d="m615.13,426.07c2.36-3.03,4.71-6.06,7.07-9.09,16.29,6.56,19.98,27.03,26.09,43.34,20.75,55.36,88.59,82.15,111.01,136.87,6.69,16.33,8.82,34.1,10.18,51.67,4.53,58.48,1.25,117.55-9.73,175.18-36.7,8.31-74.55,15.18-111.85,10.07-20.65-2.83-40.6-9.27-60.41-15.67-42.75-13.83-78.82-28.92-112.48-58.43,35.75-71.97,64-145,76.41-224.62"/><path class="cls-4" d="m495,776c-3.42,15.24-8.58,35.76-12,51-6.84,30.51-15.01,58.23-21,87-6.64,31.9-25.6,63.21-34.17,94.65,40.64-.82,81.28-1.63,121.93-2.45,1.14-.02,2.32-.06,3.32-.61,1.14-.63,1.83-1.83,2.47-2.97,18.02-32.4,35.32-65.64,44.69-101.51,2.21-8.48,3.98-17.1,7.01-25.33,7.1-19.3,21.08-36.48,22.75-56.98.06-.68-.04-1.57-.7-1.74s-.62,1.32-.1.88"/><path class="cls-6" d="m577.93,485.46c-14.63,10.87-25.7,26.44-31.18,43.82-3.64,11.54-4.83,23.69-6.01,35.73-.41,4.16.61,18.15,2.26,21.98,4.52-11.29,7.66-32.2,12.18-43.49,3.25-8.11,6.5-16.22,9.75-24.34,4.41-11.01,8.82-22.02,13.23-33.03"/><path class="cls-5" d="m551.96,599.53c27.95-30.62,72.45-45.13,113.08-36.86,19.04,3.87,38.57,13.91,45.97,31.87,2.06,4.99,3.06,10.71,1.21,15.78-1.85,5.07-7.16,9.11-12.47,8.15-1.9-.34-3.65-1.26-5.32-2.23-11.67-6.74-21.52-16.3-33.18-23.05-16.81-9.73-36.84-13.16-56.19-11.54-19.35,1.61-33.79,9.48-51.06,18.35"/><path class="cls-5" d="m532,620c0,14-10.04,28.09-12.26,39.84-22.19,117.63-41.1,236.77-83.24,348.81-17.69-1.44-35.59-.24-52.93,3.55,6.26-15.35,12.51-30.69,18.77-46.04,4.48-10.99,8.97-22,12.47-33.35,4.31-13.94,7.1-28.3,10.64-42.46,20.52-82.02,65.71-155.78,91.22-236.39l15.33-33.98Z"/><path class="cls-6" d="m633.5,833.22c.45-5.71,2.23-11.31,5.14-16.25-9.51,6.25-16.44,15.66-22.84,25.07-34.36,50.54-59.56,107.27-74.04,166.64,11.79-1.68,23.88-1.19,35.49,1.46,6.12-31.08,19.22-60.25,30.53-89.84,11.91-31.17,18.2-54.92,26.23-87.31"/><circle class="cls-3" cx="638.5" cy="393.5" r="14.5"/><circle class="cls-3" cx="638.5" cy="364.5" r="14.5"/><circle class="cls-3" cx="638.5" cy="421.5" r="14.5"/></svg>