<?xml version="1.0" encoding="UTF-8"?><svg xmlns="http://www.w3.org/2000/svg" width="1001" height="1200" viewBox="0 0 1001 1200"><defs><style>.cls-1{fill:#fff;}.cls-2{fill:#fffbb3;}.cls-3{fill:#009e4e;}.cls-4{fill:#b60acd;}.cls-5{fill:#a84e23;}.cls-6{fill:#ae7158;}.cls-7{fill:#442404;}</style></defs><g id="pige"><path class="cls-4" d="m545.01,623.81c-4.65,25.03-15.32,48.56-27.72,70.79-16.74,30.03-36.8,58.21-59.7,83.85-11.78,13.19-24.29,25.7-36.46,38.52-23.15,24.38-45.92,51.49-52.64,84.43-9.56,46.92,15.25,93.18,24.17,140.23,11.96-31.97,44.08-46.18,35-79.05-4.15-15.01,4.19-27.2,9.1-41.98,23.61-71.02,67.28-135.26,81.24-208.79,2.13-11.21,6.17-21.28,10.83-31.7,6.3-14.1,15.91-28.15,15.11-43.57"/><path class="cls-4" d="m763.24,866.42c-9.21,62.42-25.63,123.77-48.83,182.44-1.16,2.94-2.43,6-4.83,8.07-3.86,3.33-9.52,3.22-14.61,2.96-39.11-2.04-78.28-2.77-117.44-2.18-1.99-16.01.08-32.51,5.98-47.52,4.28-10.9,10.5-20.96,14.71-31.89,5-12.98,7.04-26.86,9.91-40.47,4.87-23.11,12.2-45.7,21.83-67.27,2.25-5.04,4.79-10.22,9.22-13.51,5.61-4.16,13.1-4.46,20.08-4.51,33.91-.22,67.83,1.81,101.48,6.06,2.3.29,3.25.52,3.47,2.83-2.66,1.02-2.82,4.06-3.44,6.84"/><path d="m36.24,494.48c15.13,2.82,28.15,14.84,32.18,29.69-.16-3.05,1.02-6.14,3.17-8.3,4.23,1.07,6.6,6.6,4.47,10.41,33.97-26.75,83.1-32.67,122.46-14.77,10.25-22.08,20.75-44.43,36.55-62.94,15.81-18.51,37.84-33.02,62.14-34.43-4.07-11.49-3.41-24.03-3.23-36.22.37-24.55-1.22-50.19,9-72.52,10.22-22.33,40.49-50.69,62.58-39.96-24.54,28.89-27.65,86.99-3.21,115.97,4.55,5.4,9.9,10.32,12.89,16.72,2.99,6.4,2.87,15.01-2.57,19.51-6.83,5.66-18.92,2.7-24.12,9.89-1.67,2.31-2.2,5.22-2.73,8.01-5.82,30.98-15.83,61.17-29.67,89.49-3.04,6.23-6.57,12.69-12.57,16.17-4.29,2.49-9.37,3.15-14.31,3.53-17.79,1.36-35.82-.37-53.02-5.09-1.32,17.26-12.53,32.23-25.21,44.01-19.39,18.01-44.17,31.33-70.6,32.57-26.43,1.24-54.21-11.25-67.04-34.39-9.24,6.98-19.93,12.03-31.19,14.73-2.27.55-4.9.93-6.76-.5-1.89-1.45-2.16-4.15-2.27-6.53-1.54-32.32-3.08-64.64-4.63-96.97"/><path d="m349.53,273.46c-3.53-27.4,11.29-45.75,29.68-66.36,18.39-20.61,43.58-34.28,69.93-42.55,37.53-11.79,78.65-13.13,116.19-1.4,37.54,11.74,71.17,36.93,90.88,70.97,11.44-7.82,26.68-8.39,39.96-4.42,13.28,3.96,24.96,11.96,35.97,20.37,13.22,10.1,26.01,21.19,35.16,35.08s14.39,31,11.31,47.35c41.14-11.25,88.66,8.07,110.27,44.83,19.36-25.23,52.49-39.15,84.05-35.32-.91,37.69-1.82,75.39-2.73,113.08-30.56,12.55-69.43-.79-85.83-29.47-6.83,14.8-26.28,17.6-42.56,18.38-13.86.67-27.72,1.33-41.58,2-6.58.32-13.46.58-19.42-2.22-4.56-2.14-8.14-5.88-11.61-9.53-16.15-17.01-33.25-36.16-34.35-59.58-19.42,4.33-40.85-1.73-55.12-15.6-1.57,28.18-9.66,55.97-23.47,80.58.26-7.27-3.85-14.54-10.22-18.06,19.86-33.19,19.3-81.26-10.37-106.07-1.88-1.57-4.01-3.09-6.45-3.19-6.12-.25-8.73,7.58-9.44,13.67-1.43,12.33-2.87,24.66-4.3,36.99-16.1-9.69-29.29-24.14-37.46-41.06-4.67-9.68-8.53-21.02-18.13-25.86-11.26-5.68-25.86.19-36.98-5.74-13.82-7.37-15.02-28.81-28.92-36.06-15.02-7.83-31.73,6.07-48.22,9.95-16,3.76-33.98-3.21-43.25-16.78-2.15-3.14-4.16-6.85-7.77-8.07-5.95-2.01-11.4,3.84-14.97,9.01-9.82,14.21-11.44,11.86-21.25,26.07l-9.01-1Z"/><path class="cls-5" d="m503.53,566.44c7.53-.95,14.76-3.58,21.08-7.77,39.9-26.43,72.18-63.44,103.79-99.86,4.67-5.38,9.37-10.8,13.05-16.92,5.34-8.88,8.38-18.95,11.37-28.9,5.65-18.82,11.36-38.05,10.79-57.71-.6-20.55-9.28-42.05-27.16-52.08-1.55-.87-3.3-1.39-5.07-1.28-5.55.36-11.58,7.08-12.39,11.6-2.43,13.63-.16,25.82-2.59,39.45-13.34-12.55-24.68-27.27-33.48-43.43-6.12-11.26-12.41-24.45-24.59-27.95-14.91-4.29-31.52,5.83-43.52-4.12-8.45-7.01-9.17-18.4-15.06-27.73-5.17-8.19-16.03-12.15-25.14-9.17-4.35,1.42-8.13,4.17-12.05,6.56-12.07,7.36-26.62,11.46-40.39,8.49-13.77-2.98-26.23-14.09-28.35-28.23-16.63,17.73-31.89,37.32-41.01,60-9.12,22.67-11.61,48.86-2.81,71.66,9.13,23.64,30,44.09,28.26,69.42-.38,5.57-1.9,11.05-1.86,16.64.08,11.24,6.36,21.41,13.18,30.25,12.86,16.7,28.33,31.16,41.31,47.77,7.42,9.5,22.12,22.45,35.43,32.94,10.52,8.3,23.92,12.06,37.21,10.37h0Z"/><path d="m450.06,299.86c-6.53,4.33-12.2,9.96-16.58,16.46-1.7,2.52-3.25,5.41-2.92,8.43.63,5.63,7.73,8.51,13.19,6.99,5.45-1.52,9.55-5.88,13.55-9.9,16.21-16.28,36.53-29.96,59.41-32.12.78-2.14-.76-4.57-2.8-5.58-2.04-1.01-4.43-.97-6.71-.9-13.15.4-26.48,1.03-39.03,4.98s-24.43,11.63-30.79,23.15"/><path d="m357.49,376.02c-3.46-2.25-5.78-6.22-7.34-10.33-1.65-4.36-2.6-9.3-1.36-13.82,1.64-5.99,6.69-9.95,11.68-12.81,8.44-4.83,18.12-7.89,27.42-5.86,3.04.66,6.06,1.91,8.35,4.23s3.77,5.83,3.27,9.24c-.76,5.21-5.65,8.44-10.32,9.31s-9.48.12-14.13,1.05c-8.21,1.63-15.31,8.84-17.54,17.8"/><path d="m461.84,372.22c2.58-9.6,10.4-17.19,19.44-21.32,9.04-4.13,19.2-5.16,29.13-5.02,3.33.05,6.74.21,9.9-.86,4.48-1.52,7.85-5.39,9.84-9.68,1.99-4.29,2.79-9.02,3.57-13.69-13.89,9.4-32.68,5.94-48.65,11.07-8.37,2.69-16.03,7.91-21.03,15.15s-7.2,16.5-5.31,25.09"/><path d="m482.88,349.57c-1.81.87-2.38,3.21-2.2,5.21.43,4.94,4.38,9.37,9.24,10.36s10.23-1.55,12.55-5.93c1.13-2.13,1.57-4.58,1.59-6.99.01-1.48-.14-3-.84-4.3-1.04-1.91-3.18-3.03-5.34-3.32s-4.34.16-6.43.76c-3.41.98-6.7,2.38-9.77,4.15"/><path d="m375.33,408.58c-1.39-4.21-4.27-7.92-8.01-10.3-1.74-1.11-3.98-2.8-3.12-4.67.22-.48.63-.85,1.04-1.19,6.23-5.31,13.93-8.88,22.01-10.19,4.9-.8,10.04-.76,14.7.95s8.8,5.24,10.47,9.92c1.67,4.67.5,10.44-3.38,13.54-1.64,1.32-3.63,2.1-5.59,2.85-1.83.69-3.77,1.38-5.7,1.02-1.77-.33-3.25-1.51-4.56-2.73-3.18-2.97-6.01-7.28-4.67-11.41-4.6,3.37-8.88,7.17-12.78,11.34"/><path d="m455.75,443.84c-2.92.21-5.84-.2-8.76-.18s-5.98.53-8.3,2.31-3.63,5.11-2.37,7.75c.13.28.31.56.58.7.52.27,1.13-.05,1.63-.35,4.55-2.84,9.1-5.68,13.65-8.52"/><path d="m476.02,427.07c-5.46,4.36-11.69,8.96-18.64,8.29-3.93-.38-7.7-2.46-11.62-2.01-4.14.48-7.38,3.61-10.56,6.3-5.37,4.54-11.47,8.22-17.99,10.85,5.85,2.19,11.7,4.38,17.55,6.57.47-2.81-2.64-5.06-2.85-7.9-.27-3.64,4.02-5.76,7.61-6.42,4.49-.82,9.1-.98,13.63-.48,3.19.35,6.46,1.03,9.55.19,5.89-1.61,8.95-7.92,11.28-13.56"/><circle class="cls-6" cx="417.14" cy="439.23" r="5.51"/><path d="m507.14,462.99c-9.96-2.88-20.5-3.77-30.8-2.59-4.06.47-8.15,1.27-11.79,3.15-6.38,3.3-11.36,9.87-18.52,10.55-1.46.14-2.96.02-4.37.41-3.29.9-5.23,4.22-6.61,7.34-1.4,3.18-2.59,6.71-1.73,10.07s4.57,6.18,7.79,4.88c3.75-1.52,4.3-7.1,7.92-8.91,2.71-1.36,5.96-.05,8.97-.38,6.33-.7,9.5-8,14.85-11.46,5.16-3.33,11.81-2.77,17.82-4,6.14-1.25,11.85-4.52,16.04-9.19"/><path d="m499.18,471.68c1.39,7.75-2.56,15.74-8.06,20.49-5.49,4.75-12.29,6.94-18.91,9.02-3.21,1.01-6.42,2.02-9.62,3.03-2.71.85-5.72,1.67-8.21.17-1.61-.98-2.7-2.77-3.87-4.37-1.17-1.61-2.63-3.17-4.44-3.37-1.81-.2-3.81,1.72-3.31,3.74.45,1.8,2.38,2.42,3.43,3.85,1.07,1.46,1.1,3.56,1.79,5.3.72,1.81,2.12,3.12,3.54,4.25,12.57,9.97,30.71,9.36,42.76-1.43,12.04-10.79,17.04-30.92,11.76-47.42-2.05,2.21-4.11,4.41-6.16,6.62"/><path class="cls-1" d="m445.44,492.4c1.2,1.08,2.4,2.15,3.6,3.23.41.37.86.76,1.4.86.53.1,1.06-.09,1.57-.27,12.68-4.67,24.97-10.4,36.69-17.13,4.05-2.33,8.29-5.05,10.07-9.37-3.48-.54-7.02.25-10.46,1.04-2.87.66-5.73,1.31-8.6,1.97-2.47.56-5.02,1.17-7,2.74-1.53,1.21-2.59,2.91-3.84,4.41-3.93,4.73-9.96,7.64-16.11,7.78-1.51.03-3.07-.09-4.51.36s-2.79,1.68-2.8,3.19"/><path class="cls-1" d="m451.45,499.35c3.29,2.59,8.07.99,11.87-.75,12.46-5.7,24.89-12.02,34.84-21.43-2.46,8.21-7.61,15.88-15.14,19.97-3.9,2.12-8.27,3.21-12.58,4.28-3.61.9-7.22,1.79-10.83,2.69-2.09.52-4.28,1.04-6.38.55s-4.05-2.34-3.89-4.48"/><path class="cls-7" d="m546.65,612.28c9.46-20.34,17.7-41.18,26.49-61.82,7-16.45,14.97-32.38,25.24-47.06,3.36-4.8,7.07-9.3,10.56-14,1.67-2.25,2.72-4.75,3.77-7.32,1.1-2.68,2.61-4.84,4.82-6.73,1.47-1.25-.66-3.37-2.12-2.12-1.99,1.69-3.62,3.69-4.74,6.06-.99,2.09-1.69,4.29-2.83,6.31-1.38,2.43-3.3,4.53-5,6.74-1.59,2.06-3.16,4.13-4.68,6.23-5.42,7.46-10.37,15.25-14.79,23.35-8.9,16.33-15.61,33.73-22.71,50.88-5.29,12.76-10.76,25.44-16.59,37.96-.81,1.74,1.78,3.26,2.59,1.51h0Z"/><path class="cls-7" d="m526.82,555.93c9.36,23.5,18.65,48.83,19.03,74.12,5.01-20.03,3.47-46.8,12.07-65.45,17.41-37.78,55.87-65.37,63.61-106.24-29.7,32.7-48.53,66.19-84.7,91.56-3,2-7.01,5.01-10.02,6.01"/><path class="cls-5" d="m618.1,468.85c2.36-3.03,4.72-6.07,7.08-9.1,16.31,6.57,20.01,27.07,26.13,43.41,20.79,55.45,88.73,82.29,111.19,137.09,6.7,16.36,8.83,34.16,10.2,51.75,4.54,58.58,1.25,117.74-9.75,175.47-36.76,8.33-74.68,15.2-112.04,10.09-20.69-2.83-40.66-9.28-60.51-15.7-42.83-13.85-78.95-28.97-112.67-58.53,35.8-72.09,64.11-145.24,76.54-224.99"/><path class="cls-5" d="m497.77,819.36c-3.42,15.27-8.6,35.82-12.02,51.08-6.85,30.56-15.04,58.32-21.03,87.14-6.65,31.96-25.64,63.31-34.22,94.8,40.71-.82,81.42-1.63,122.13-2.45,1.14-.02,2.33-.06,3.32-.61,1.14-.63,1.84-1.83,2.47-2.97,18.05-32.45,35.38-65.75,44.76-101.68,2.22-8.49,3.99-17.13,7.02-25.37,7.11-19.34,21.11-36.54,22.79-57.07.06-.68-.04-1.57-.7-1.74s-.62,1.33-.1.89"/><path class="cls-7" d="m580.84,528.34c-14.65,10.89-25.74,26.49-31.23,43.9-3.64,11.56-4.84,23.73-6.02,35.79-.41,4.16.61,18.18,2.27,22.02,4.53-11.31,7.67-32.26,12.2-43.57,3.25-8.13,6.51-16.25,9.76-24.38,4.42-11.03,8.83-22.06,13.25-33.09"/><path class="cls-6" d="m554.82,642.6c28-30.67,72.57-45.2,113.27-36.92,19.07,3.88,38.63,13.94,46.05,31.93,2.06,5,3.06,10.72,1.21,15.81-1.85,5.08-7.17,9.12-12.5,8.17-1.91-.34-3.65-1.26-5.33-2.23-11.69-6.75-21.55-16.33-33.23-23.09-16.83-9.75-36.9-13.18-56.28-11.56-19.38,1.62-33.85,9.49-51.15,18.38"/><path class="cls-6" d="m534.84,663.1c0,14.02-10.06,28.13-12.28,39.91-22.23,117.82-41.17,237.16-83.38,349.39-17.72-1.44-35.65-.24-53.02,3.56,6.27-15.37,12.53-30.75,18.8-46.12,4.49-11.01,8.98-22.04,12.49-33.4,4.31-13.97,7.11-28.35,10.66-42.53,20.56-82.15,65.82-156.04,91.37-236.78l15.35-34.03Z"/><path class="cls-7" d="m636.51,876.68c.46-5.72,2.23-11.33,5.15-16.28-9.53,6.26-16.47,15.69-22.88,25.11-34.41,50.62-59.66,107.45-74.17,166.92,11.81-1.69,23.92-1.19,35.55,1.47,6.13-31.13,19.25-60.35,30.58-89.99,11.93-31.22,18.23-55.01,26.27-87.45"/><circle class="cls-3" cx="641.51" cy="436.23" r="14.52"/><circle class="cls-3" cx="641.51" cy="407.18" r="14.52"/><circle class="cls-3" cx="641.51" cy="464.28" r="14.52"/></g><g id="_øje"><path class="cls-2" d="m499.53,352.38c-4.91,2.91-5.32,3.87-4.11,9.44-2.91-4.91-3.87-5.32-9.44-4.11,4.91-2.91,5.32-3.87,4.11-9.44,2.91,4.91,3.87,5.32,9.44,4.11Z"/><path class="cls-2" d="m405.17,395.42c-3.59,2.13-3.9,2.83-3.01,6.91-2.13-3.59-2.83-3.9-6.91-3.01,3.59-2.13,3.9-2.83,3.01-6.91,2.13,3.59,2.83,3.9,6.91,3.01Z"/></g></svg>