<?xml version="1.0" encoding="UTF-8"?><svg id="alt_indhold" xmlns="http://www.w3.org/2000/svg" width="204.03" height="59.87" viewBox="0 0 204.03 59.87"><path d="m38.36,21.48c1.86,0,3.49.25,4.88.76,1.39.51,2.54,1.2,3.45,2.07.91.87,1.59,1.86,2.05,2.96.46,1.1.69,2.24.69,3.42,0,1.26-.23,2.46-.71,3.58-.47,1.13-1.17,2.13-2.1,3.01-.93.88-2.08,1.58-3.46,2.08-1.38.51-2.98.77-4.8.77h-6.45s-.04.03-.04.03c-.01,0-.02,0-.02.03v3.78h-12.48v-22.5h18.99Zm-3.69,12.15c.6,0,1.11-.11,1.52-.32.41-.21.71-.48.91-.81.2-.33.3-.67.3-1.01,0-.36-.1-.69-.3-1-.2-.31-.5-.56-.9-.76-.4-.2-.91-.3-1.53-.3h-2.76s-.04,0-.04.01c-.01.01-.02.03-.02.04v4.11s.04,0,.06.03h2.76Z"/><path d="m63.17,44.88c-1.24,0-2.44-.09-3.6-.27s-2.24-.46-3.24-.83c-1-.37-1.91-.83-2.73-1.39s-1.52-1.21-2.1-1.96-1.03-1.6-1.35-2.55c-.32-.95-.48-2-.48-3.16,0-1.36.22-2.58.68-3.68.45-1.09,1.09-2.04,1.92-2.86.83-.82,1.8-1.5,2.92-2.06,1.12-.55,2.36-.96,3.71-1.23,1.35-.27,2.78-.41,4.28-.41,1.88,0,3.63.21,5.27.64,1.63.43,3.06,1.07,4.29,1.92,1.23.85,2.2,1.92,2.9,3.19.7,1.28,1.05,2.77,1.05,4.47s-.35,3.18-1.05,4.45c-.7,1.27-1.67,2.33-2.9,3.18-1.23.85-2.66,1.48-4.29,1.9-1.63.42-3.39.63-5.27.63Zm.03-7.95c1.24,0,2.12-.24,2.64-.72.52-.48.78-1,.78-1.56,0-.26-.06-.52-.18-.78-.12-.26-.31-.5-.57-.72-.26-.22-.61-.39-1.05-.53-.44-.13-.98-.19-1.62-.19s-1.18.07-1.64.19c-.45.13-.81.31-1.08.53-.27.22-.47.46-.58.72-.12.26-.18.53-.18.81s.06.55.18.83c.12.27.32.51.6.72.28.21.64.38,1.08.51.44.13.98.2,1.62.2Z"/><path d="m77.58,33.51v-8.13h10.38v5.94l-.03.03c-1.72.36-3.45.72-5.17,1.08-1.73.36-3.46.72-5.17,1.08Zm0,10.47v-10.47h10.38v10.47h-10.38Z"/><path d="m89.16,43.98v-18.6h10.38v18.6h-10.38Zm13.56,0v-9.48c0-.58-.15-.99-.43-1.23-.29-.24-.64-.37-1.04-.39-.4-.02-.77.03-1.1.15s-.54.24-.62.36l2.4-7.71c.72-.32,1.49-.56,2.31-.72.82-.16,1.63-.24,2.43-.24,1.12,0,2.16.18,3.13.54.97.36,1.76.93,2.37,1.71.61.78.92,1.82.92,3.12v13.89h-10.38Z"/><path d="m114.32,36.15v-10.83l10.26-2.46v10.53c0,.38.08.71.25.99s.41.51.72.71c.31.19.67.33,1.09.43.42.1.89.15,1.41.15.58,0,1.17-.09,1.77-.27s1.14-.43,1.64-.75c.49-.32.84-.69,1.06-1.11v9.12c-.86.68-1.97,1.19-3.33,1.52-1.36.33-2.72.5-4.08.5-2.06,0-3.91-.34-5.54-1.01-1.63-.67-2.92-1.64-3.86-2.91-.94-1.27-1.41-2.81-1.41-4.61Zm10.29-2.61c.24-.92.47-1.83.71-2.73.23-.9.46-1.8.69-2.71s.46-1.82.68-2.71h5.85v8.16h-7.92Z"/><path d="m133.73,33.81v-8.43h10.95v8.43h-10.95Zm0,10.17v-8.43h10.95v8.43h-10.95Z"/><path d="m166.03,22.14v21.84h-6.04v-14.31c-.98.74-1.92,1.34-2.83,1.8s-2.06.9-3.44,1.32v-4.89c2.03-.65,3.61-1.44,4.73-2.36s2-2.05,2.64-3.4h4.94Z"/><path d="m172.52,33.15c0-4.08.73-6.94,2.2-8.57s3.71-2.45,6.72-2.45c1.45,0,2.63.18,3.56.53.93.36,1.68.82,2.27,1.39.59.57,1.05,1.17,1.38,1.8.34.63.61,1.37.81,2.21.4,1.6.6,3.27.6,5.01,0,3.9-.66,6.75-1.98,8.55s-3.59,2.71-6.81,2.71c-1.81,0-3.27-.29-4.38-.86s-2.03-1.42-2.74-2.53c-.52-.79-.92-1.87-1.21-3.25-.29-1.37-.43-2.89-.43-4.55Zm5.92.01c0,2.73.24,4.6.72,5.6s1.18,1.5,2.1,1.5c.61,0,1.13-.21,1.58-.64.44-.42.77-1.1.98-2.01s.31-2.35.31-4.29c0-2.85-.24-4.77-.72-5.75-.48-.98-1.21-1.47-2.18-1.47s-1.7.5-2.14,1.5-.66,2.85-.66,5.56Z"/></svg>