<?xml version="1.0" encoding="UTF-8"?><svg id="alt_indhold" xmlns="http://www.w3.org/2000/svg" width="163.41mm" height="182.98mm" viewBox="0 0 463.22 518.68"><defs><style>.cls-1{stroke-linecap:round;}.cls-1,.cls-2{fill:none;stroke:#000;stroke-miterlimit:10;stroke-width:30px;}.cls-3{fill:#ee4b8d;}.cls-4{fill:#ef4c23;}.cls-5{fill:#009e4e;}.cls-6{fill:#1c2eb4;}</style></defs><circle class="cls-6" cx="235.59" cy="284.21" r="200.48"/><circle class="cls-3" cx="235.59" cy="284.21" r="181.88"/><circle class="cls-5" cx="235.25" cy="284.02" r="161.91"/><circle cx="233.86" cy="284.14" r="144.68"/><circle class="cls-4" cx="232.92" cy="281.84" r="126.9"/><ellipse cx="269.52" cy="229.65" rx="22.4" ry="37.33" transform="translate(-5.25 6.31) rotate(-1.33)"/><ellipse cx="197.52" cy="231.65" rx="22.4" ry="37.33" transform="translate(-5.31 4.64) rotate(-1.33)"/><path class="cls-1" d="m181.46,357.97c-2.32-7.46-8.53-12.76-15.64-13.41-7.46-.69-12.76,4.04-13.68,4.89"/><path class="cls-1" d="m316.62,340c-6.91-3.63-15.06-2.99-20.54,1.58-5.76,4.79-6.16,11.88-6.21,13.13"/><path class="cls-2" d="m296.35,341.22c-1.2-5.07-7.8-29.34-31.16-43.61-12.42-7.59-42.55-9.26-60.99.7-24.61,13.3-31.88,41.95-32.63,45.8"/></svg>