<?xml version="1.0" encoding="UTF-8"?><svg id="alt_indhold" xmlns="http://www.w3.org/2000/svg" width="632.32" height="237.66" viewBox="0 0 632.32 237.66"><defs><style>.cls-1{fill:#fff;}</style></defs><rect class="cls-1" x="32.96" y="67.98" width="551" height="124" rx="37.12" ry="37.12"/><path d="m151.26,128.55c8.29,0,15.23.36,20.81,1.08,5.58.72,10.03,1.84,13.35,3.36,3.32,1.52,5.69,3.46,7.13,5.8,1.44,2.35,2.16,5.13,2.16,8.33,0,3.48-1.12,6.56-3.36,9.25-2.24,2.68-5.36,4.92-9.37,6.72-4.01,1.8-8.65,3.15-13.93,4.06-5.28.91-10.96,1.37-17.04,1.37-6.75,0-12.88-.5-18.41-1.49-5.53-1-10.23-2.53-14.1-4.6-3.87-2.07-6.76-4.74-8.67-8-1.91-3.26-2.67-7.16-2.28-11.69l35.41-2.4c-.44,1.66-.32,3.04.37,4.15.69,1.11,1.78,1.94,3.28,2.49,1.49.55,3.15.83,4.97.83,1.11,0,2.12-.08,3.03-.25.91-.17,1.73-.41,2.45-.75.72-.33,1.27-.76,1.66-1.29.39-.52.58-1.12.58-1.78,0-1.33-.68-2.18-2.03-2.57-1.36-.39-3.33-.58-5.93-.58h-2.07c-8.18,0-14.98-.43-20.4-1.29-5.42-.86-9.7-2.06-12.85-3.61-3.15-1.55-5.39-3.39-6.72-5.51-1.33-2.13-1.99-4.52-1.99-7.17,0-2.82.75-5.38,2.24-7.67,1.49-2.29,3.61-4.31,6.34-6.05s5.94-3.19,9.62-4.35c3.67-1.16,7.71-2.04,12.11-2.65,4.39-.61,9-.91,13.81-.91,6.8,0,12.89.61,18.28,1.82,5.39,1.22,9.92,2.96,13.6,5.22,3.68,2.27,6.31,4.98,7.92,8.13,1.6,3.15,1.99,6.69,1.16,10.61l-34.25,1.58c.61-1.6.58-2.92-.08-3.94-.66-1.02-1.7-1.77-3.11-2.24-1.41-.47-3-.71-4.77-.71-1.11,0-2.1.1-2.99.29-.88.19-1.65.47-2.28.83-.64.36-1.13.79-1.49,1.29-.36.5-.54,1.02-.54,1.58,0,.66.22,1.2.66,1.62s1.12.7,2.03.87,2.11.25,3.61.25h2.07Z"/><path d="m269.84,103.84v25.21h-19.98c-.06.06-.1.08-.12.08s-.04.03-.04.08v36.82h-34.41v-36.82c0-.05-.01-.1-.04-.12-.03-.03-.07-.04-.12-.04h-19.98v-25.21h74.71Z"/><path d="m332.52,103.84c1,3.43,1.98,6.87,2.94,10.32.97,3.46,1.93,6.91,2.9,10.36.97,3.46,1.95,6.91,2.94,10.37.99,3.46,1.98,6.91,2.94,10.36.97,3.46,1.93,6.91,2.9,10.36.97,3.46,1.95,6.92,2.94,10.41h-36.98l-1.41-8.13h-11.28l-1.41,8.13h-35.41c1-3.48,1.98-6.95,2.94-10.41.97-3.45,1.93-6.91,2.9-10.36.97-3.45,1.93-6.91,2.9-10.36.97-3.45,1.93-6.91,2.9-10.37.97-3.45,1.93-6.91,2.9-10.36.97-3.45,1.92-6.9,2.86-10.32h51.49Zm-31.09,48.26h9.2c.05,0,.08-.03.08-.08-.44-2.71-.84-5.1-1.2-7.17-.36-2.07-.73-4.28-1.12-6.63-.39-2.35-.75-4.57-1.08-6.67-.33-2.1-.75-4.48-1.24-7.13h-.08c-.44,2.65-.84,5.03-1.2,7.13-.36,2.1-.73,4.33-1.12,6.67-.39,2.35-.75,4.56-1.08,6.63-.33,2.07-.72,4.46-1.16,7.17v.08Z"/><path d="m351.92,103.84h59.95c4.86,0,8.9.87,12.11,2.61,3.21,1.74,5.61,3.98,7.21,6.72,1.6,2.74,2.4,5.63,2.4,8.67s-.87,6.21-2.61,9.16c-1.74,2.96-4.37,5.38-7.88,7.26-3.51,1.88-7.89,2.82-13.14,2.82h-6.14v.33h18.82l12.77,24.63h-39.39c-1.05-2.82-2.11-5.64-3.19-8.46-1.08-2.82-2.16-5.64-3.23-8.46s-2.17-5.64-3.28-8.46h9.62c1.11,0,2.09-.17,2.94-.5.86-.33,1.56-.77,2.11-1.33.55-.55.97-1.17,1.24-1.87.28-.69.41-1.4.41-2.11,0-1-.25-1.93-.75-2.82-.5-.88-1.24-1.6-2.24-2.16-1-.55-2.24-.83-3.73-.83h-9.45c-.06.06-.1.08-.12.08-.03,0-.04.03-.04.08v11.07c0,.41,0,.57,0,.46v25.29h-34.41v-62.19Z"/><path d="m510.8,103.84v25.21h-19.98c-.06.06-.1.08-.12.08s-.04.03-.04.08v36.82h-34.41v-36.82c0-.05-.01-.1-.04-.12-.03-.03-.07-.04-.12-.04h-19.98v-25.21h74.71Z"/></svg>