<svg xmlns="http://www.w3.org/2000/svg" width="106" height="86" viewBox="0 0 106 86">
  <g id="Group_71" data-name="Group 71" transform="translate(-990.5 -10913)">
    <g id="Group_65" data-name="Group 65" transform="translate(990.5 10913)">
      <path id="Rectangle_10" data-name="Rectangle 10" d="M28,4A23.977,23.977,0,0,0,4,28V58A23.977,23.977,0,0,0,28,82H78a23.977,23.977,0,0,0,24-24V28A23.977,23.977,0,0,0,78,4H28m0-4H78a28,28,0,0,1,28,28V58A28,28,0,0,1,78,86H28A28,28,0,0,1,0,58V28A28,28,0,0,1,28,0Z" transform="translate(0 0)" fill="#1f1f1f"/>
    </g>
    <text id="CSS" transform="translate(1006.5 10969)" fill="#1f1f1f" font-size="39" font-family="GlacialIndifference-Regular, Glacial Indifference"><tspan x="0" y="0">CSS</tspan></text>
  </g>
</svg>
