<svg xmlns="http://www.w3.org/2000/svg" width="424.612" height="424.612" viewBox="0 0 424.612 424.612">
  <path id="Path_16" data-name="Path 16" d="M78.2,1A77.2,77.2,0,0,0,1,78.2V348.41a77.2,77.2,0,0,0,77.2,77.2H348.41a77.2,77.2,0,0,0,77.2-77.2V78.2A77.2,77.2,0,0,0,348.41,1Zm35.029,98.612A154.33,154.33,0,1,1,262.1,363.449c-7.83,1.488-10.326-3.071-10.326-7.188V313.566a36.569,36.569,0,0,0-10.552-28.426c34.353-3.794,70.41-16.815,70.41-76.085a59.558,59.558,0,0,0-15.863-41.406,55.386,55.386,0,0,0-1.529-40.8s-12.86-4.13-42.359,15.823a145.93,145.93,0,0,0-77.237,0c-29.433-19.966-42.4-15.823-42.4-15.823a55.325,55.325,0,0,0-1.5,40.8,59.63,59.63,0,0,0-15.89,41.381c0,59.106,36,72.329,70.236,76.243a32.854,32.854,0,0,0-9.787,20.543A32.828,32.828,0,0,1,130.437,293a32.368,32.368,0,0,0-23.627-15.877s-15.045-.187-1.046,9.386a40.811,40.811,0,0,1,17.11,22.555s8.863,29.621,51.773,20.316c.061,9.727.03,17.924.011,22.954-.006,1.646-.011,2.953-.011,3.864,0,4.076-2.441,8.594-10.137,7.253A154.2,154.2,0,0,1,113.231,99.612Z" transform="translate(-1 -1)" fill="#1f1f1f" fill-rule="evenodd"/>
</svg>
