<svg xmlns="http://www.w3.org/2000/svg" width="290.383" height="290.383" viewBox="0 0 290.383 290.383">
  <path id="Path_15" data-name="Path 15" d="M53.8,1A52.8,52.8,0,0,0,1,53.8V238.586a52.8,52.8,0,0,0,52.8,52.8H238.586a52.8,52.8,0,0,0,52.8-52.8V53.8A52.8,52.8,0,0,0,238.586,1ZM77.752,68.439a105.543,105.543,0,1,1,101.81,180.432c-5.355,1.018-7.062-2.1-7.062-4.915v-29.2a25.009,25.009,0,0,0-7.216-19.44c23.493-2.595,48.152-11.5,48.152-52.033a40.73,40.73,0,0,0-10.848-28.317,37.877,37.877,0,0,0-1.045-27.9s-8.795-2.825-28.968,10.821a99.8,99.8,0,0,0-52.82,0c-20.129-13.654-29-10.821-29-10.821a37.836,37.836,0,0,0-1.027,27.9,40.78,40.78,0,0,0-10.867,28.3c0,40.421,24.622,49.464,48.033,52.141a22.468,22.468,0,0,0-6.693,14.049,22.451,22.451,0,0,1-30.684-8.767,22.136,22.136,0,0,0-16.158-10.858s-10.289-.128-.715,6.419a27.91,27.91,0,0,1,11.7,15.425s6.061,20.257,35.406,13.894c.042,6.652.02,12.258.008,15.7,0,1.126-.008,2.019-.008,2.642,0,2.788-1.669,5.878-6.933,4.96A105.457,105.457,0,0,1,77.752,68.439Z" transform="translate(-1 -1)" fill="#f0efe8" fill-rule="evenodd"/>
</svg>
