<svg xmlns="http://www.w3.org/2000/svg" width="106" height="86" viewBox="0 0 106 86">
  <g id="Group_393" data-name="Group 393" transform="translate(-172 -17503)">
    <path id="Rectangle_503" data-name="Rectangle 503" d="M28,4A23.977,23.977,0,0,0,4,28V58A23.977,23.977,0,0,0,28,82H78a23.977,23.977,0,0,0,24-24V28A23.977,23.977,0,0,0,78,4H28m0-4H78a28,28,0,0,1,28,28V58A28,28,0,0,1,78,86H28A28,28,0,0,1,0,58V28A28,28,0,0,1,28,0Z" transform="translate(172 17503)" fill="#1f1f1f"/>
    <g id="Group_395" data-name="Group 395">
      <g id="Group_394" data-name="Group 394">
        <text id="Js" transform="translate(209 17558)" fill="#1f1f1f" font-size="39" font-family="GlacialIndifference-Regular, Glacial Indifference"><tspan x="0" y="0">Js</tspan></text>
      </g>
    </g>
  </g>
</svg>
