<svg xmlns="http://www.w3.org/2000/svg" width="106" height="86" viewBox="0 0 106 86">
  <g id="Group_392" data-name="Group 392" transform="translate(-172 -17503)">
    <path id="Rectangle_503" data-name="Rectangle 503" d="M28,3A24.977,24.977,0,0,0,3,28V58A24.977,24.977,0,0,0,28,83H78a24.977,24.977,0,0,0,25-25V28A24.977,24.977,0,0,0,78,3H28m0-3H78a28,28,0,0,1,28,28V58A28,28,0,0,1,78,86H28A28,28,0,0,1,0,58V28A28,28,0,0,1,28,0Z" transform="translate(172 17503)" fill="#1f1f1f"/>
    <text id="Pr" transform="translate(209 17558)" fill="#1f1f1f" font-size="39" font-family="GlacialIndifference-Regular, Glacial Indifference"><tspan x="0" y="0">Pr</tspan></text>
  </g>
</svg>
