<svg xmlns="http://www.w3.org/2000/svg" width="42" height="34" viewBox="0 0 42 34">
  <g id="Group_134" data-name="Group 134" transform="translate(-0.167 -0.123)">
    <path id="Path_4" data-name="Path 4" d="M22.147,7.521V4.5h9.818V7.521ZM20.525,12.5a7.842,7.842,0,0,1,6.154-2.714c4.687,0,7.552,4.09,7.552,8.308V20.36H23.353a3.95,3.95,0,0,0,3.325,2.266,8,8,0,0,0,4.077-1.161L33.009,25.4a12.662,12.662,0,0,1-6.331,1.76,8.314,8.314,0,0,1-5.769-2.523A8.3,8.3,0,0,1,18.37,18.85,9.717,9.717,0,0,1,20.525,12.5Zm9.722,4.083H22.454a4.094,4.094,0,0,1,4.224-3.021A3.663,3.663,0,0,1,30.247,16.584ZM1,5.255H9.685A6.421,6.421,0,0,1,15.2,14.964a6.42,6.42,0,0,1-4,11.438H1ZM5.531,17.339v5.287H10.44a2.643,2.643,0,0,0,0-5.287Zm6.042-5.664A2.643,2.643,0,0,1,8.93,14.318h-3.4V9.031h3.4A2.643,2.643,0,0,1,11.573,11.675Z" transform="translate(3.781 1.233)" fill="#1f1f1f" fill-rule="evenodd"/>
    <path id="Rectangle_11" data-name="Rectangle 11" d="M10,1a9.01,9.01,0,0,0-9,9V24a9.01,9.01,0,0,0,9,9H32a9.01,9.01,0,0,0,9-9V10a9.01,9.01,0,0,0-9-9H10m0-1H32A10,10,0,0,1,42,10V24A10,10,0,0,1,32,34H10A10,10,0,0,1,0,24V10A10,10,0,0,1,10,0Z" transform="translate(0.167 0.123)" fill="#1f1f1f"/>
  </g>
</svg>
