<svg xmlns="http://www.w3.org/2000/svg" width="42" height="34" viewBox="0 0 42 34">
  <g id="Group_57" data-name="Group 57" transform="translate(0 -0.123)">
    <path id="Path_7" data-name="Path 7" d="M3.852,6.7A2.852,2.852,0,1,0,1,3.852,2.852,2.852,0,0,0,3.852,6.7ZM6.7,26.1V8.987H1V26.1ZM8.987,8.987h5.134v2.22c.817-1.074,2.562-2.22,5.7-2.22,4.941,0,6.275,4.929,6.275,7.987V26.1H20.4V16.973c0-1.141-.57-3.423-2.852-3.423a4.163,4.163,0,0,0-3.423,2.226V26.1H8.987Z" transform="translate(7.492 3.511)" fill="#f0efe8" fill-rule="evenodd"/>
    <path id="Rectangle_10" data-name="Rectangle 10" d="M10,1a9.01,9.01,0,0,0-9,9V24a9.01,9.01,0,0,0,9,9H32a9.01,9.01,0,0,0,9-9V10a9.01,9.01,0,0,0-9-9H10m0-1H32A10,10,0,0,1,42,10V24A10,10,0,0,1,32,34H10A10,10,0,0,1,0,24V10A10,10,0,0,1,10,0Z" transform="translate(0 0.123)" fill="#f0efe8"/>
  </g>
</svg>
