<svg xmlns="http://www.w3.org/2000/svg" xmlns:xlink="http://www.w3.org/1999/xlink" width="1647" height="572.977" viewBox="0 0 1647 572.977">
  <defs>
    <clipPath id="clip-path">
      <rect id="Rectangle_18" data-name="Rectangle 18" width="1647" height="572.977" fill="#1f1f1f"/>
    </clipPath>
    <clipPath id="clip-path-2">
      <rect id="Rectangle_19" data-name="Rectangle 19" width="1647" height="572.977" fill="none"/>
    </clipPath>
  </defs>
  <g id="Group_142" data-name="Group 142" transform="translate(-137 -4202)">
    <g id="Group_141" data-name="Group 141">
      <g id="Group_82" data-name="Group 82" transform="translate(137 4202)">
        <g id="Group_81" data-name="Group 81" clip-path="url(#clip-path)">
          <path id="Path_8" data-name="Path 8" d="M570.5,285.248c0,157.538-127.71,285.248-285.249,285.248S0,442.786,0,285.248,127.71,0,285.248,0,570.5,127.71,570.5,285.248" fill="#1f1f1f"/>
          <path id="Path_9" data-name="Path 9" d="M1101.307,285.248c0,157.538-127.71,285.248-285.249,285.248S530.81,442.786,530.81,285.248,658.52,0,816.058,0s285.249,127.711,285.249,285.249" fill="#1f1f1f"/>
          <path id="Path_10" data-name="Path 10" d="M1647,287.728c0,157.538-127.71,285.249-285.249,285.249S1076.5,445.266,1076.5,287.728,1204.213,2.479,1361.751,2.479,1647,130.19,1647,287.728" fill="#1f1f1f"/>
        </g>
      </g>
    </g>
    <text id="_50_" data-name="50%" transform="translate(317.937 4354.175)" fill="#f1efe9" font-size="98.527" font-family="GlacialIndifference-Bold, Glacial Indifference" font-weight="700"><tspan x="0" y="0">50%</tspan></text>
    <text id="Af_t-shirts" data-name="Af t-shirts" transform="translate(326.991 4489.448)" fill="#f1efe9" font-size="39.411" font-family="GlacialIndifference-Regular, Glacial Indifference"><tspan x="0" y="0">A</tspan><tspan y="0" letter-spacing="0.024em">f</tspan><tspan y="0" xml:space="preserve"> t-shi</tspan><tspan y="0" letter-spacing="-0.012em">r</tspan><tspan y="0">ts</tspan></text>
    <text id="CO2_afftryk_" data-name="CO2 afftryk " transform="translate(303.937 4536.741)" fill="#f1efe9" font-size="39.411" font-family="GlacialIndifference-Regular, Glacial Indifference"><tspan x="0" y="0" letter-spacing="-0.012em">C</tspan><tspan y="0">O2 a</tspan><tspan y="0" letter-spacing="-0.02em">f</tspan><tspan y="0" letter-spacing="-0.014em">f</tspan><tspan y="0">tryk </tspan></text>
    <text id="kommer_fra_tøjvask" data-name="kommer fra tøjvask" transform="translate(239.342 4584.034)" fill="#f1efe9" font-size="39.411" font-family="GlacialIndifference-Regular, Glacial Indifference"><tspan x="0" y="0" letter-spacing="-0.019em">k</tspan><tspan y="0">ommer f</tspan><tspan y="0" letter-spacing="-0.013em">r</tspan><tspan y="0">a tøjvask</tspan></text>
    <g id="Group_84" data-name="Group 84" transform="translate(137 4202)">
      <g id="Group_83" data-name="Group 83" clip-path="url(#clip-path-2)">
        <path id="Path_14" data-name="Path 14" d="M432.113,1.5H0v-3H432.113Z" transform="translate(69.668 205.192)" fill="#f1efe9"/>
      </g>
    </g>
    <text id="_99_" data-name="99%" transform="translate(869 4354.175)" fill="#f1efe9" font-size="98.527" font-family="GlacialIndifference-Bold, Glacial Indifference" font-weight="700"><tspan x="0" y="0">99%</tspan></text>
    <text id="Af_bakterierne_dræbes_" data-name="Af bakterierne dræbes," transform="translate(765 4489.448)" fill="#f1efe9" font-size="39.411" font-family="GlacialIndifference-Regular, Glacial Indifference"><tspan x="0" y="0">A</tspan><tspan y="0" letter-spacing="0.024em">f</tspan><tspan y="0" xml:space="preserve"> bakterierne d</tspan><tspan y="0" letter-spacing="-0.012em">r</tspan><tspan y="0">æbes,</tspan></text>
    <text id="hvis_der_tilføjes_sølvsalt" data-name="hvis der tilføjes sølvsalt" transform="translate(765.276 4536.741)" fill="#f1efe9" font-size="39.411" font-family="GlacialIndifference-Regular, Glacial Indifference"><tspan x="0" y="0">hvis der tilføjes sølvsalt</tspan></text>
    <text id="til_tekstilet" data-name="til tekstilet" transform="translate(880.593 4584.034)" fill="#f1efe9" font-size="39.411" font-family="GlacialIndifference-Regular, Glacial Indifference"><tspan x="0" y="0">til te</tspan><tspan y="0" letter-spacing="-0.005em">k</tspan><tspan y="0">stilet</tspan></text>
    <g id="Group_86" data-name="Group 86" transform="translate(137 4202)">
      <g id="Group_85" data-name="Group 85" clip-path="url(#clip-path-2)">
        <path id="Line_14" data-name="Line 14" d="M432.113,1.5H0v-3H432.113Z" transform="translate(600.337 205.359)" fill="#f1efe9"/>
      </g>
    </g>
    <text id="_100_" data-name="100%" transform="translate(1380.655 4354.175)" fill="#f1efe9" font-size="98.527" font-family="GlacialIndifference-Bold, Glacial Indifference" font-weight="700"><tspan x="0" y="0">100%</tspan></text>
    <text id="Af_forbrugerne_er_villige" data-name="Af forbrugerne er villige" transform="translate(1302.155 4487.448)" fill="#f1efe9" font-size="37.206" font-family="GlacialIndifference-Regular, Glacial Indifference"><tspan x="0" y="0">A</tspan><tspan y="0" letter-spacing="0.024em">f</tspan><tspan y="0" xml:space="preserve"> forbrugerne er villige</tspan></text>
    <text id="til_at_købe_betale_mere" data-name="til at købe + betale mere" transform="translate(1298.397 4532.095)" fill="#f1efe9" font-size="37.206" font-family="GlacialIndifference-Regular, Glacial Indifference"><tspan x="0" y="0">til </tspan><tspan y="0" letter-spacing="-0.009em">a</tspan><tspan y="0">t </tspan><tspan y="0" letter-spacing="-0.02em">k</tspan><tspan y="0">øbe + betale me</tspan><tspan y="0" letter-spacing="-0.018em">r</tspan><tspan y="0">e</tspan></text>
    <text id="for_en_t-shirt_hvis_noget_af_" data-name="for en t-shirt, hvis noget af " transform="translate(1280.948 4576.743)" fill="#f1efe9" font-size="37.206" font-family="GlacialIndifference-Regular, Glacial Indifference"><tspan x="0" y="0">for en t-shi</tspan><tspan y="0" letter-spacing="-0.012em">r</tspan><tspan y="0">t</tspan><tspan y="0" letter-spacing="-0.029em">,</tspan><tspan y="0" xml:space="preserve"> hvis noget a</tspan><tspan y="0" letter-spacing="0.024em">f</tspan><tspan y="0"> </tspan></text>
    <text id="indkomsten_går_til_et_godt_" data-name="indkomsten går til et godt " transform="translate(1281.469 4621.39)" fill="#f1efe9" font-size="37.206" font-family="GlacialIndifference-Regular, Glacial Indifference"><tspan x="0" y="0">ind</tspan><tspan y="0" letter-spacing="-0.02em">k</tspan><tspan y="0">omsten går til et godt </tspan></text>
    <text id="formål" transform="translate(1453.399 4666.038)" fill="#f1efe9" font-size="37.206" font-family="GlacialIndifference-Regular, Glacial Indifference"><tspan x="0" y="0">formål</tspan></text>
    <g id="Group_87" data-name="Group 87" transform="translate(137 4202)" clip-path="url(#clip-path)">
      <path id="Line_15" data-name="Line 15" d="M432.113,1.5H0v-3H432.113Z" transform="translate(1145.387 202.879)" fill="#f1efe9"/>
    </g>
    <text id="_desk_research_" data-name="(desk research)" transform="translate(368.424 4724.219)" fill="#f1efe9" font-size="16.89" font-family="AvenirNext-Italic, Avenir Next" font-style="italic"><tspan x="0" y="0">(desk </tspan><tspan y="0" letter-spacing="-0.011em">r</tspan><tspan y="0">es</tspan><tspan y="0" letter-spacing="-0.006em">e</tspan><tspan y="0">a</tspan><tspan y="0" letter-spacing="-0.011em">r</tspan><tspan y="0">ch)</tspan></text>
    <text id="_desk_research_2" data-name="(desk research)" transform="translate(897.516 4736.955)" fill="#f1efe9" font-size="16.89" font-family="AvenirNext-Italic, Avenir Next" font-style="italic"><tspan x="0" y="0">(desk </tspan><tspan y="0" letter-spacing="-0.011em">r</tspan><tspan y="0">es</tspan><tspan y="0" letter-spacing="-0.005em">e</tspan><tspan y="0">a</tspan><tspan y="0" letter-spacing="-0.011em">r</tspan><tspan y="0">ch)</tspan></text>
    <text id="_survey_" data-name="(survey)" transform="translate(1469.745 4739.438)" fill="#f1efe9" font-size="16.89" font-family="AvenirNext-Italic, Avenir Next" font-style="italic"><tspan x="0" y="0">(survey)</tspan></text>
  </g>
</svg>
